<?xml version="1.0" encoding="UTF-8"?>
<svg xmlns:xlink="http://www.w3.org/1999/xlink" width="95px" height="45px" viewBox="0 0 95 45" version="1.1"
     xmlns="http://www.w3.org/2000/svg">
    <!-- Generator: Sketch 40.2 (33826) - http://www.bohemiancoding.com/sketch -->
    <title>Group 3</title>
    <desc>Created with Sketch.</desc>
    <defs></defs>
    <g id="Page-1" stroke="none" stroke-width="1" fill="none" fill-rule="evenodd">
        <g id="1" transform="translate(-49.000000, -49.000000)" fill="#2121FB">
            <g id="Group-3" transform="translate(49.000000, 49.000000)">
                <g id="Group-6">
                    <path d="M86.2435034,0.0977383236 L94.563905,0.0977383236 C94.563905,7.26581016 89.2434755,13.0766805 82.6803931,13.0766805 C76.1173106,13.0766805 70.7968811,7.26581016 70.7968811,0.0977383236 L79.1172827,0.0977383236 C79.1799668,2.18807797 80.7512355,3.86163156 82.6803931,3.86163156 C84.6095506,3.86163156 86.1808193,2.18807797 86.2435034,0.0977383236 Z M40.5342447,0.0977383236 L32.0566321,0.0977383236 L32.0566321,28.1252378 L40.5342447,0.0977383236 Z M48.9312191,2.19541601 L48.9312191,13.3362594 L48.9325134,13.3362594 C48.931652,13.3794088 48.9312191,13.4226736 48.9312191,13.4660488 C48.9312191,16.6916811 51.3254124,19.3065728 54.2787995,19.3065728 C57.2321866,19.3065728 59.6263799,16.6916811 59.6263799,13.4660488 C59.6263799,13.4226736 59.6259469,13.3794088 59.6250856,13.3362594 L59.6263799,13.3362594 L59.6263799,0.0977383236 L68.1825085,0.0977383236 L68.1820112,13.5958382 C68.1181832,21.922724 61.9179552,28.6514111 54.2787995,28.6514111 C49.566935,28.6514111 45.4025072,26.0914983 42.8877162,22.1756018 L48.9312191,2.19541601 Z M21.1238012,13.3362594 L21.1225068,13.3362594 C21.1233682,13.3794088 21.1238012,13.4226736 21.1238012,13.4660488 C21.1238012,16.6916811 18.7296079,19.3065728 15.7762208,19.3065728 C12.8228337,19.3065728 10.4286404,16.6916811 10.4286404,13.4660488 C10.4286404,13.4226736 10.4290733,13.3794088 10.4299347,13.3362594 L10.4286404,13.3362594 L10.4286404,0.0977383236 L1.87251179,0.0977383236 L1.87251179,13.5958382 C1.93683703,21.922724 8.13706503,28.6514111 15.7762208,28.6514111 C23.4153765,28.6514111 29.6156045,21.922724 29.6794325,13.5958382 L29.6799298,0.0977383236 L21.1238012,0.0977383236 L21.1238012,13.3362594 L21.1238012,13.3362594 Z M70.7968811,28.6514111 C70.7968811,21.4833393 76.1173106,15.6724689 82.6803931,15.6724689 C89.2434755,15.6724689 94.563905,21.4833393 94.563905,28.6514111 L70.7968811,28.6514111 Z M79.1153395,28.6514111 C79.1153395,26.5009896 80.7114683,24.7577285 82.6803931,24.7577285 C84.6493178,24.7577285 86.2454466,26.5009896 86.2454466,28.6514111 L79.1153395,28.6514111 Z"
                          id="Combined-Shape"></path>
                    <path d="M0.577286314,40.8341195 L1.09831746,40.0965336 C1.3623079,40.4205394 1.68534398,40.6873636 2.0674354,40.8970144 C2.44952681,41.1066652 2.87329458,41.211489 3.33875139,41.211489 C3.64095097,41.211489 3.90580582,41.1705124 4.13332389,41.088558 C4.36084197,41.0066036 4.53625403,40.8970151 4.65956535,40.7597891 C4.78287667,40.6225631 4.87318784,40.4796216 4.93050155,40.3309601 C4.98781526,40.1822987 5.01647169,40.0279218 5.01647169,39.8678248 C5.01647169,39.6543622 4.96871098,39.4666323 4.87318812,39.3046294 C4.77766527,39.1426266 4.64827716,39.0111203 4.48501992,38.9101068 C4.32176268,38.8090932 4.13506172,38.7185636 3.92491144,38.6385151 C3.71476116,38.5584666 3.49332513,38.484137 3.26059672,38.415524 C3.02786831,38.346911 2.79427502,38.2754402 2.55980983,38.2011095 C2.32534464,38.1267788 2.10304024,38.0333903 1.89288996,37.9209412 C1.68273968,37.8084922 1.49603872,37.6788918 1.33278148,37.5321363 C1.16952424,37.3853808 1.04013613,37.1966979 0.944613273,36.966082 C0.849090418,36.7354662 0.801329707,36.4715008 0.801329707,36.1741779 C0.801329707,35.5376019 1.03231787,35.0182475 1.49430113,34.6160992 C1.95628439,34.2139509 2.53983344,34.0128798 3.24496579,34.0128798 C4.30092753,34.0128798 5.14325279,34.3749984 5.77196685,35.0992465 L5.24051508,35.8139615 C4.72642845,35.188821 4.04041096,34.8762555 3.18244205,34.8762555 C2.75172082,34.8762555 2.40002831,34.9915617 2.12735398,35.2221775 C1.85467965,35.4527934 1.71834453,35.7510648 1.71834453,36.1170007 C1.71834453,36.3037804 1.76610524,36.4676868 1.86162809,36.6087246 C1.95715095,36.7497624 2.08653905,36.8650685 2.2497963,36.9546466 C2.41305354,37.0442247 2.5997545,37.1252249 2.80990478,37.1976497 C3.02005506,37.2700745 3.24235946,37.3405923 3.47682465,37.4092053 C3.71128984,37.4778183 3.94488313,37.551195 4.17761154,37.6293375 C4.41033995,37.7074801 4.63177597,37.8065862 4.84192625,37.926659 C5.05207653,38.0467317 5.2387775,38.1858615 5.40203474,38.3440525 C5.56529198,38.5022435 5.69468009,38.7033147 5.79020294,38.9472719 C5.8857258,39.1912292 5.93348651,39.4694888 5.93348651,39.782059 C5.93348651,40.0183926 5.90483008,40.2442403 5.84751637,40.4596088 C5.79020266,40.6749773 5.69468123,40.8827191 5.56094924,41.0828403 C5.42721724,41.2829615 5.26135732,41.4554443 5.06336449,41.6002939 C4.86537167,41.7451435 4.61614759,41.8614027 4.3156848,41.9490748 C4.015222,42.036747 3.67916027,42.0805824 3.30748953,42.0805824 C2.16121527,42.0805824 1.25115663,41.6650989 0.577286314,40.8341195 L0.577286314,40.8341195 Z M9.3597873,41.9376394 L9.3597873,34.1272342 L10.156965,34.1272342 L10.156965,37.1004485 C10.3619049,36.837432 10.6302333,36.6115844 10.9619581,36.4228987 C11.2936829,36.234213 11.6419019,36.1398715 12.0066255,36.1398715 C13.1007964,36.1398715 13.6478736,36.742132 13.6478736,37.946671 L13.6478736,41.9376394 L12.8454857,41.9376394 L12.8454857,38.2154038 C12.8454857,37.7427366 12.7456224,37.4092063 12.5458928,37.2148029 C12.3461632,37.0203994 12.0587305,36.9231991 11.6835862,36.9231991 C11.3883338,36.9231991 11.1009011,37.0089641 10.8212797,37.1804965 C10.5416582,37.352029 10.3202222,37.5597707 10.156965,37.803728 L10.156965,41.9376394 L9.3597873,41.9376394 Z M17.0898054,40.2051703 C17.0898054,39.9002237 17.141908,39.6257759 17.2461147,39.3818186 C17.3503215,39.1378614 17.4892617,38.9425079 17.6629396,38.7957524 C17.8366175,38.6489968 18.0285288,38.5365495 18.238679,38.4584069 C18.4488293,38.3802643 18.6667918,38.3411936 18.8925731,38.3411936 C19.6254939,38.3411936 20.195149,38.5984885 20.6015553,39.1130858 L20.6015553,38.0953317 C20.6015553,37.725584 20.4799826,37.4339832 20.2368335,37.2205206 C19.9936844,37.007058 19.6810688,36.9003283 19.2989774,36.9003283 C18.6945783,36.9003283 18.1683421,37.1633407 17.720253,37.6893736 L17.3451106,37.0775776 C17.8904593,36.4524371 18.5782135,36.1398715 19.408394,36.1398715 C19.6897522,36.1398715 19.94766,36.1760834 20.1821252,36.2485082 C20.4165904,36.320933 20.6267375,36.4305216 20.8125729,36.5772771 C20.9984083,36.7240326 21.1434272,36.9231979 21.2476339,37.1747788 C21.3518407,37.4263597 21.4039433,37.7179605 21.4039433,38.0495899 L21.4039433,41.9376394 L20.6015553,41.9376394 L20.6015553,41.291537 C20.1638869,41.8175699 19.5942319,42.0805824 18.8925731,42.0805824 C18.5903736,42.0805824 18.305546,42.0119704 18.038082,41.8747445 C17.7706181,41.7375185 17.5457085,41.5231061 17.3633467,41.231501 C17.1809849,40.9398958 17.0898054,40.597789 17.0898054,40.2051703 L17.0898054,40.2051703 Z M17.9130346,40.2166057 C17.9130346,40.574918 18.0320022,40.8693776 18.2699409,41.0999934 C18.5078797,41.3306093 18.8126798,41.4459155 19.1843506,41.4459155 C19.4761295,41.4459155 19.7479313,41.38588 19.9997643,41.2658073 C20.2515973,41.1457346 20.4521923,40.9713459 20.6015553,40.7426359 L20.6015553,39.6791401 C20.4521923,39.4504301 20.2515973,39.2760414 19.9997643,39.1559687 C19.7479313,39.035896 19.4761295,38.9758605 19.1843506,38.9758605 C18.8126798,38.9758605 18.5078797,39.0921197 18.2699409,39.3246414 C18.0320022,39.5571632 17.9130346,39.8544817 17.9130346,40.2166057 L17.9130346,40.2166057 Z M25.1376524,41.9376394 L25.1376524,36.2828145 L25.9348301,36.2828145 L25.9348301,37.1004485 C26.1362965,36.837432 26.4028881,36.6115844 26.7346129,36.4228987 C27.0663377,36.234213 27.4110832,36.1398715 27.7688597,36.1398715 C28.8665042,36.1398715 29.4153181,36.7497555 29.4153181,37.9695419 L29.4153181,41.9376394 L28.6129302,41.9376394 L28.6129302,38.2382747 C28.6129302,37.7656075 28.5139352,37.4282654 28.3159424,37.2262383 C28.1179496,37.0242112 27.8331221,36.9231991 27.4614513,36.9231991 C27.1627253,36.9231991 26.8735559,37.0089641 26.5939345,37.1804965 C26.314313,37.352029 26.0946138,37.5597707 25.9348301,37.803728 L25.9348301,41.9376394 L25.1376524,41.9376394 Z M32.8468292,39.0787795 C32.8468292,38.1829989 33.0587131,37.469244 33.4824872,36.9374934 C33.9062614,36.4057429 34.4602856,36.1398715 35.1445766,36.1398715 C35.4884589,36.1398715 35.8088898,36.2265894 36.1058791,36.4000278 C36.4028683,36.5734662 36.6573026,36.8183727 36.8691897,37.1347548 L36.8691897,36.2828145 L37.6715777,36.2828145 L37.6715777,41.7718255 C37.6715777,42.1339496 37.6264221,42.4579504 37.5361096,42.7438379 C37.4457971,43.0297253 37.3250927,43.2641494 37.1739929,43.4471174 C37.0228931,43.6300853 36.8405341,43.7816034 36.6269102,43.9016761 C36.4132864,44.0217488 36.190982,44.1065608 35.9599903,44.1561146 C35.7289987,44.2056685 35.4815114,44.230445 35.217521,44.230445 C34.7590113,44.230445 34.3717153,44.1694566 34.0556215,44.047478 C33.7395277,43.9254993 33.4338591,43.7063223 33.1386067,43.3899402 L33.5398007,42.7324024 C33.7482142,43.0068543 33.9861493,43.2041137 34.2536133,43.3241864 C34.5210773,43.4442591 34.8423767,43.5042946 35.217521,43.5042946 C35.4398287,43.5042946 35.6465023,43.4728474 35.837548,43.4099522 C36.0285937,43.347057 36.2031374,43.2508097 36.3611843,43.1212074 C36.5192312,42.9916051 36.6434091,42.8143575 36.7337216,42.5894594 C36.8240341,42.3645613 36.8691897,42.1034547 36.8691897,41.8061318 L36.8691897,40.9999333 C36.6711969,41.3010681 36.4211044,41.5440687 36.1189048,41.7289426 C35.8167053,41.9138165 35.4919324,42.006252 35.1445766,42.006252 C34.4602856,42.006252 33.9062614,41.7432395 33.4824872,41.2172067 C33.0587131,40.6911738 32.8468292,39.9783719 32.8468292,39.0787795 L32.8468292,39.0787795 Z M33.6804791,39.0787795 C33.6804791,39.7115436 33.8289715,40.2289921 34.1259607,40.6311404 C34.4229499,41.0332887 34.8250083,41.2343598 35.3321478,41.2343598 C35.6412945,41.2343598 35.9382793,41.1438302 36.2231111,40.9627682 C36.5079429,40.7817061 36.7233003,40.563482 36.8691897,40.3080892 L36.8691897,37.8380343 C36.7267738,37.5826415 36.5122848,37.3663233 36.2257162,37.1890731 C35.9391477,37.0118229 35.6412945,36.9231991 35.3321478,36.9231991 C34.8215347,36.9231991 34.418608,37.1233173 34.1233556,37.5235597 C33.8281031,37.9238021 33.6804791,38.4422035 33.6804791,39.0787795 L33.6804791,39.0787795 Z M41.4052868,41.9376394 L41.4052868,34.1272342 L42.2024645,34.1272342 L42.2024645,37.1004485 C42.4074044,36.837432 42.6757328,36.6115844 43.0074576,36.4228987 C43.3391824,36.234213 43.6874014,36.1398715 44.0521251,36.1398715 C45.1462959,36.1398715 45.6933732,36.742132 45.6933732,37.946671 L45.6933732,41.9376394 L44.8909852,41.9376394 L44.8909852,38.2154038 C44.8909852,37.7427366 44.7911219,37.4092063 44.5913923,37.2148029 C44.3916627,37.0203994 44.1042301,36.9231991 43.7290857,36.9231991 C43.4338333,36.9231991 43.1464006,37.0089641 42.8667792,37.1804965 C42.5871578,37.352029 42.3657217,37.5597707 42.2024645,37.803728 L42.2024645,41.9376394 L41.4052868,41.9376394 Z M49.1353049,40.2051703 C49.1353049,39.9002237 49.1874075,39.6257759 49.2916142,39.3818186 C49.395821,39.1378614 49.5347612,38.9425079 49.7084392,38.7957524 C49.8821171,38.6489968 50.0740283,38.5365495 50.2841786,38.4584069 C50.4943289,38.3802643 50.7122914,38.3411936 50.9380727,38.3411936 C51.6709935,38.3411936 52.2406485,38.5984885 52.6470548,39.1130858 L52.6470548,38.0953317 C52.6470548,37.725584 52.5254821,37.4339832 52.282333,37.2205206 C52.0391839,37.007058 51.7265684,36.9003283 51.344477,36.9003283 C50.7400778,36.9003283 50.2138416,37.1633407 49.7657526,37.6893736 L49.3906102,37.0775776 C49.9359588,36.4524371 50.6237131,36.1398715 51.4538935,36.1398715 C51.7352517,36.1398715 51.9931596,36.1760834 52.2276248,36.2485082 C52.4620899,36.320933 52.6722371,36.4305216 52.8580724,36.5772771 C53.0439078,36.7240326 53.1889267,36.9231979 53.2931335,37.1747788 C53.3973402,37.4263597 53.4494428,37.7179605 53.4494428,38.0495899 L53.4494428,41.9376394 L52.6470548,41.9376394 L52.6470548,41.291537 C52.2093865,41.8175699 51.6397315,42.0805824 50.9380727,42.0805824 C50.6358731,42.0805824 50.3510456,42.0119704 50.0835816,41.8747445 C49.8161176,41.7375185 49.5912081,41.5231061 49.4088463,41.231501 C49.2264844,40.9398958 49.1353049,40.597789 49.1353049,40.2051703 L49.1353049,40.2051703 Z M49.9585341,40.2166057 C49.9585341,40.574918 50.0775017,40.8693776 50.3154404,41.0999934 C50.5533792,41.3306093 50.8581794,41.4459155 51.2298501,41.4459155 C51.521629,41.4459155 51.7934309,41.38588 52.0452639,41.2658073 C52.2970968,41.1457346 52.4976918,40.9713459 52.6470548,40.7426359 L52.6470548,39.6791401 C52.4976918,39.4504301 52.2970968,39.2760414 52.0452639,39.1559687 C51.7934309,39.035896 51.521629,38.9758605 51.2298501,38.9758605 C50.8581794,38.9758605 50.5533792,39.0921197 50.3154404,39.3246414 C50.0775017,39.5571632 49.9585341,39.8544817 49.9585341,40.2166057 L49.9585341,40.2166057 Z M57.0424736,34.8876909 C57.0424736,34.7237821 57.0954445,34.5836994 57.2013881,34.4674385 C57.3073316,34.3511776 57.4315094,34.2930481 57.5739253,34.2930481 C57.7232883,34.2930481 57.8518081,34.3511776 57.9594884,34.4674385 C58.0671687,34.5836994 58.121008,34.7237821 58.121008,34.8876909 C58.121008,35.0515997 58.0671687,35.1907295 57.9594884,35.3050845 C57.8518081,35.4194394 57.7232883,35.476616 57.5739253,35.476616 C57.4315094,35.476616 57.3073316,35.4194394 57.2013881,35.3050845 C57.0954445,35.1907295 57.0424736,35.0515997 57.0424736,34.8876909 L57.0424736,34.8876909 Z M57.183152,41.9376394 L57.183152,36.2828145 L57.9803296,36.2828145 L57.9803296,41.9376394 L57.183152,41.9376394 Z M66.3647628,35.2421895 C66.6322268,34.8533827 66.9847876,34.5512995 67.422456,34.335931 C67.8601243,34.1205624 68.3325212,34.0128798 68.8396607,34.0128798 C69.1418603,34.0128798 69.4327664,34.060527 69.7123879,34.1558228 C69.9920093,34.2511186 70.2455753,34.3902484 70.4730934,34.5732163 C70.7006114,34.7561843 70.8829705,34.997279 71.0201761,35.2965079 C71.1573816,35.5957367 71.2259834,35.9321259 71.2259834,36.3056854 C71.2259834,36.6182557 71.1669338,36.9355859 71.0488328,37.2576858 C70.9307318,37.5797856 70.7778975,37.8837746 70.5903254,38.1696621 C70.4027532,38.4555495 70.150924,38.7709739 69.8348302,39.1159447 C69.5187364,39.4609155 69.2078576,39.7753869 68.9021845,40.0593684 C68.5965113,40.3433499 68.2196359,40.6797391 67.7715469,41.068546 L71.2624556,41.068546 L71.2624556,41.9376394 L66.3751834,41.9376394 L66.3751834,41.1657472 C66.7329599,40.8569888 67.0360233,40.5930234 67.2843827,40.373843 C67.5327422,40.1546627 67.7941235,39.9192856 68.0685346,39.6677046 C68.3429457,39.4161237 68.5713288,39.1969466 68.7536906,39.0101669 C68.9360524,38.8233871 69.1201482,38.6251748 69.3059836,38.415524 C69.491819,38.2058732 69.6403114,38.0171904 69.7514652,37.8494697 C69.8626191,37.6817491 69.9650875,37.5083134 70.0588736,37.3291572 C70.1526597,37.1500011 70.2195247,36.9765654 70.2594706,36.8088448 C70.2994165,36.6411241 70.3193892,36.473406 70.3193892,36.3056854 C70.3193892,35.9893033 70.2455772,35.7196203 70.0979509,35.4966281 C69.9503247,35.2736359 69.7679656,35.1144943 69.5508682,35.0191985 C69.3337708,34.9239027 69.096704,34.8762555 68.8396607,34.8762555 C68.4263073,34.8762555 68.0555105,34.9639263 67.7272592,35.1392706 C67.399008,35.3146149 67.1254693,35.5547567 66.9066352,35.8597033 L66.3647628,35.2421895 Z M74.7460698,38.0381545 C74.7460698,37.6417239 74.7773313,37.2567347 74.8398554,36.8831751 C74.9023794,36.5096156 75.0039795,36.1474969 75.1446586,35.7968084 C75.2853377,35.4461198 75.459013,35.1402248 75.6656897,34.8791143 C75.8723665,34.6180038 76.1302743,34.4083562 76.439421,34.2501652 C76.7485677,34.0919741 77.0924448,34.0128798 77.4710627,34.0128798 C77.846207,34.0128798 78.1883473,34.0919741 78.497494,34.2501652 C78.8066407,34.4083562 79.0645486,34.6180038 79.2712253,34.8791143 C79.477902,35.1402248 79.6515773,35.4461198 79.7922564,35.7968084 C79.9329355,36.1474969 80.0345356,36.5105685 80.0970596,36.886034 C80.1595837,37.2614994 80.1908453,37.6455358 80.1908453,38.0381545 C80.1908453,38.4307732 80.1595837,38.8148096 80.0970596,39.190275 C80.0345356,39.5657405 79.9329355,39.929765 79.7922564,40.2823595 C79.6515773,40.634954 79.477902,40.9427548 79.2712253,41.2057712 C79.0645486,41.4687877 78.8066407,41.6803412 78.497494,41.8404381 C78.1883473,42.0005351 77.846207,42.0805824 77.4710627,42.0805824 C77.0924448,42.0805824 76.7485677,42.0005351 76.439421,41.8404381 C76.1302743,41.6803412 75.8723665,41.4687877 75.6656897,41.2057712 C75.459013,40.9427548 75.2853377,40.634001 75.1446586,40.2795006 C75.0039795,39.9250002 74.9023794,39.5609757 74.8398554,39.1874162 C74.7773313,38.8138566 74.7460698,38.4307732 74.7460698,38.0381545 L74.7460698,38.0381545 Z M75.6578743,38.0381545 C75.6578743,38.4498324 75.6900042,38.8357746 75.754265,39.1959928 C75.8185259,39.5562109 75.9183892,39.8916471 76.0538579,40.2023114 C76.1893267,40.5129758 76.3786328,40.7588352 76.6217819,40.9398973 C76.864931,41.1209593 77.1480217,41.211489 77.4710627,41.211489 C77.7941036,41.211489 78.0771944,41.1209593 78.3203434,40.9398973 C78.5634925,40.7588352 78.7527986,40.5129758 78.8882674,40.2023114 C79.0237362,39.8916471 79.1235995,39.5562109 79.1878603,39.1959928 C79.2521211,38.8357746 79.2842511,38.4498324 79.2842511,38.0381545 C79.2842511,37.7141488 79.2651468,37.405395 79.2269376,37.1118839 C79.1887285,36.8183728 79.1244686,36.5334426 79.0341561,36.2570848 C78.9438436,35.980727 78.8309546,35.7415381 78.6954859,35.539511 C78.5600171,35.3374839 78.3872102,35.1764364 78.1770599,35.0563636 C77.9669096,34.9362909 77.7315795,34.8762555 77.4710627,34.8762555 C77.2105458,34.8762555 76.9752157,34.9362909 76.7650655,35.0563636 C76.5549152,35.1764364 76.3821082,35.3374839 76.2466395,35.539511 C76.1111707,35.7415381 75.9982817,35.980727 75.9079692,36.2570848 C75.8176567,36.5334426 75.7533968,36.8183728 75.7151877,37.1118839 C75.6769786,37.405395 75.6578743,37.7141488 75.6578743,38.0381545 L75.6578743,38.0381545 Z M83.0909046,36.1398715 L84.8728311,34.1272342 L85.6543778,34.1272342 L85.6543778,41.9376394 L84.7686249,41.9376394 L84.7686249,35.4137211 L83.6223564,36.7402321 L83.0909046,36.1398715 Z M89.1588333,38.0495899 C89.1588333,37.6188529 89.1944367,37.2071812 89.2656447,36.8145625 C89.3368526,36.4219438 89.4497416,36.0541075 89.6043149,35.7110426 C89.7588883,35.3679777 89.947326,35.0716121 90.1696337,34.8219371 C90.3919414,34.5722621 90.6637433,34.3750028 90.9850475,34.2301531 C91.3063516,34.0853035 91.6615176,34.0128798 92.0505562,34.0128798 C92.8703159,34.0128798 93.5285454,34.3235395 94.0252642,34.9448681 L93.5771774,35.6710185 C93.375711,35.4118139 93.1577485,35.2145546 92.9232833,35.0792345 C92.6888181,34.9439145 92.397912,34.8762555 92.0505562,34.8762555 C91.7205681,34.8762555 91.4244517,34.9639263 91.1621981,35.1392706 C90.8999444,35.3146149 90.6889289,35.5480861 90.5291452,35.8396913 C90.3693615,36.1312964 90.2486572,36.4572032 90.1670286,36.8174213 C90.0853999,37.1776395 90.0445862,37.5540523 90.0445862,37.946671 C90.0445862,38.0800851 90.0480597,38.1810972 90.0550069,38.2497101 C90.2321583,37.9409517 90.5074337,37.6607863 90.8808412,37.4092053 C91.2542488,37.1576244 91.6528336,37.0318358 92.0766077,37.0318358 C92.3996486,37.0318358 92.7009753,37.0842477 92.9805968,37.1890731 C93.2602182,37.2938985 93.5059688,37.4473224 93.7178558,37.6493496 C93.9297429,37.8513767 94.0964712,38.1134362 94.2180457,38.435536 C94.3396203,38.7576358 94.4004066,39.1207074 94.4004066,39.5247616 C94.4004066,39.8640147 94.3422254,40.1880156 94.2258612,40.496774 C94.109497,40.8055324 93.9471106,41.0771214 93.7386971,41.3115491 C93.5302836,41.5459767 93.2671655,41.7327537 92.9493349,41.8718856 C92.6315043,42.0110175 92.2832853,42.0805824 91.9046674,42.0805824 C91.5191025,42.0805824 91.1708835,42.0081586 90.86,41.863309 C90.5491165,41.7184594 90.2894719,41.522153 90.0810584,41.2743839 C89.8726449,41.0266148 89.6981012,40.7302493 89.5574221,40.3852785 C89.416743,40.0403076 89.3151429,39.6734243 89.2526189,39.2846174 C89.1900948,38.8958105 89.1588333,38.4841388 89.1588333,38.0495899 L89.1588333,38.0495899 Z M90.0810584,39.0444732 C90.1018998,39.3074896 90.1496605,39.5590668 90.224342,39.7992122 C90.2990235,40.0393576 90.4040971,40.2690171 90.5395658,40.4881974 C90.6750346,40.7073778 90.8573937,40.8827194 91.0866485,41.0142276 C91.3159034,41.1457358 91.5781531,41.211489 91.8734056,41.211489 C92.137396,41.211489 92.3761996,41.1609829 92.5898234,41.0599694 C92.8034472,40.9589558 92.9745174,40.8274496 93.1030391,40.6654467 C93.2315607,40.5034439 93.3305557,40.3271493 93.4000268,40.1365577 C93.469498,39.945966 93.5042331,39.7534714 93.5042331,39.559068 C93.5042331,39.0101641 93.3513988,38.5918218 93.0457256,38.3040285 C92.7400525,38.0162351 92.3458096,37.8723406 91.8629849,37.8723406 C91.5156291,37.8723406 91.1821725,37.9800233 90.8626051,38.1953918 C90.5430378,38.4107603 90.2825248,38.6937846 90.0810584,39.0444732 L90.0810584,39.0444732 Z"
                          id="Shanghai-2016"></path>
                </g>
            </g>
        </g>
    </g>
</svg>